<svg width="222" height="131" viewBox="0 0 222 131" fill="none" xmlns="http://www.w3.org/2000/svg">
<path d="M90.33 131L54.93 81.4H15.13V131H0.730011V0.200012H58.53C73.33 0.200012 84.43 3.87001 91.83 11.2C99.23 18.53 102.93 28.33 102.93 40.6C102.93 51.13 100.2 59.9 94.73 66.9C89.26 73.9 81.06 78.4 70.13 80.4V80.8L107.73 131H90.33V131ZM58.73 68.2C69 68.2 76.5 65.7 81.23 60.7C85.96 55.7 88.33 49 88.33 40.6C88.33 22.47 78.46 13.4 58.73 13.4H15.13V68.2H58.73ZM126.72 131V0.200012H221.12V13.4H141.12V57.8H209.52V71H141.12V131H126.72V131Z" fill="black"/>
</svg>
